<svg width="40" height="40" viewBox="0 0 40 40" fill="none" xmlns="http://www.w3.org/2000/svg">
<rect x="0.5" y="0.5" width="39" height="39" rx="7.5" fill="white"/>
<rect x="0.5" y="0.5" width="39" height="39" rx="7.5" stroke="#F9F9F9"/>
<path d="M33.3333 25.5867C33.3333 30.44 30.44 33.3333 25.5867 33.3333H24C23.2667 33.3333 22.6667 32.7333 22.6667 32V24.3067C22.6667 23.9467 22.96 23.64 23.32 23.64L25.6667 23.6C25.8533 23.5867 26.0133 23.4533 26.0534 23.2667L26.52 20.72C26.56 20.48 26.3733 20.2533 26.12 20.2533L23.28 20.2933C22.9067 20.2933 22.6134 20 22.6 19.64L22.5467 16.3733C22.5467 16.16 22.72 15.9733 22.9467 15.9733L26.1467 15.92C26.3733 15.92 26.5467 15.7467 26.5467 15.52L26.4933 12.32C26.4933 12.0933 26.32 11.92 26.0933 11.92L22.4933 11.9733C20.28 12.0133 18.52 13.8267 18.56 16.04L18.6267 19.7067C18.64 20.08 18.3467 20.3733 17.9734 20.3867L16.3733 20.4133C16.1467 20.4133 15.9734 20.5866 15.9734 20.8133L16.0134 23.3467C16.0134 23.5733 16.1867 23.7467 16.4133 23.7467L18.0134 23.72C18.3867 23.72 18.68 24.0133 18.6933 24.3733L18.8133 31.9733C18.8267 32.72 18.2267 33.3333 17.48 33.3333H14.4133C9.56 33.3333 6.66667 30.44 6.66667 25.5733V14.4133C6.66667 9.55999 9.56 6.66666 14.4133 6.66666H25.5867C30.44 6.66666 33.3333 9.55999 33.3333 14.4133V25.5867Z" fill="#7A3DE2"/>
</svg>
