<svg width="40" height="40" viewBox="0 0 40 40" fill="none" xmlns="http://www.w3.org/2000/svg">
<rect x="0.5" y="0.5" width="39" height="39" rx="7.5" fill="white"/>
<rect x="0.5" y="0.5" width="39" height="39" rx="7.5" stroke="#F9F9F9"/>
<path d="M28 6.66667H12C9.78667 6.66667 8 8.44 8 10.6267V25.1733C8 27.36 9.78667 29.1333 12 29.1333H13.0133C14.08 29.1333 15.0933 29.5467 15.84 30.2933L18.12 32.5467C19.16 33.5733 20.8533 33.5733 21.8933 32.5467L24.1733 30.2933C24.92 29.5467 25.9467 29.1333 27 29.1333H28C30.2133 29.1333 32 27.36 32 25.1733V10.6267C32 8.44 30.2133 6.66667 28 6.66667ZM20.3733 23.9467C20.1733 24.0133 19.84 24.0133 19.6267 23.9467C17.8933 23.3467 14 20.88 14 16.68C14.0133 14.8267 15.4933 13.3333 17.3333 13.3333C18.4267 13.3333 19.3867 13.8533 20 14.6667C20.6133 13.8533 21.5733 13.3333 22.6667 13.3333C24.5067 13.3333 26 14.8267 26 16.68C25.9867 20.88 22.1067 23.3467 20.3733 23.9467Z" fill="url(#paint0_linear_1_4748)"/>
<defs>
<linearGradient id="paint0_linear_1_4748" x1="32" y1="19.9917" x2="8" y2="19.9917" gradientUnits="userSpaceOnUse">
<stop stop-color="#7A3DE2"/>
<stop offset="1" stop-color="#43217C"/>
</linearGradient>
</defs>
</svg>
