<svg width="314" height="244" viewBox="0 0 314 244" fill="none" xmlns="http://www.w3.org/2000/svg">
<circle cx="151.67" cy="114.002" r="108.522" fill="#F2ECFC" stroke="#E3E3E3" stroke-width="0.904348" stroke-dasharray="0.9 3.62"/>
<circle cx="151.67" cy="114" r="91.3867" fill="white" stroke="#E3E3E3" stroke-width="0.904348" stroke-dasharray="0.9 3.62"/>
<circle cx="151.67" cy="114.002" r="74.2517" fill="#F2ECFC" stroke="#E3E3E3" stroke-width="0.904348" stroke-dasharray="0.9 3.62"/>
<circle cx="151.67" cy="114.003" r="57.1167" fill="url(#paint0_radial_1_3845)" stroke="#ECECEC" stroke-width="0.904348" stroke-dasharray="0.9 3.62"/>
<rect x="259.87" y="0.897962" width="22.1565" height="22.1565" rx="3.3913" fill="white"/>
<rect x="259.87" y="0.897962" width="22.1565" height="22.1565" rx="3.3913" stroke="#F9F9F9" stroke-width="0.452174"/>
<path d="M275.47 4.43689H266.426C265.175 4.43689 264.165 5.43921 264.165 6.67515V14.8972C264.165 16.1331 265.175 17.1354 266.426 17.1354H266.999C267.602 17.1354 268.174 17.3691 268.596 17.7911L269.885 19.0647C270.473 19.645 271.43 19.645 272.018 19.0647L273.307 17.7911C273.729 17.3691 274.309 17.1354 274.904 17.1354H275.47C276.721 17.1354 277.73 16.1331 277.73 14.8972V6.67515C277.73 5.43921 276.721 4.43689 275.47 4.43689ZM274.475 10.8427L273.593 13.5256C273.48 13.9702 273.005 14.332 272.523 14.332H271.129C270.887 14.332 270.548 14.2491 270.398 14.0983L269.29 13.2317C269.267 13.714 269.049 13.9175 268.514 13.9175H268.152C267.594 13.9175 267.368 13.6989 267.368 13.1714V9.5766C267.368 9.04906 267.594 8.83051 268.152 8.83051H268.521C269.079 8.83051 269.305 9.04906 269.305 9.5766V9.8479L270.767 7.67747C270.918 7.44385 271.302 7.27805 271.626 7.40617C271.98 7.52675 272.206 7.91863 272.131 8.2653L271.95 9.44095C271.927 9.53892 271.95 9.64443 272.018 9.71225C272.078 9.78008 272.169 9.8253 272.267 9.8253H273.736C274.023 9.8253 274.264 9.93834 274.407 10.1418C274.543 10.3378 274.565 10.5865 274.475 10.8427Z" fill="url(#paint1_linear_1_3845)"/>
<rect x="286.547" y="27.1245" width="22.1565" height="22.1565" rx="3.3913" fill="white"/>
<rect x="286.547" y="27.1245" width="22.1565" height="22.1565" rx="3.3913" stroke="#F9F9F9" stroke-width="0.452174"/>
<path d="M302.148 30.6635H293.105C291.854 30.6635 290.844 31.6658 290.844 32.9018V41.1238C290.844 42.3597 291.854 43.362 293.105 43.362H293.677C294.28 43.362 294.853 43.5957 295.275 44.0177L296.564 45.2913C297.152 45.8716 298.109 45.8716 298.697 45.2913L299.985 44.0177C300.407 43.5957 300.988 43.362 301.583 43.362H302.148C303.399 43.362 304.409 42.3597 304.409 41.1238V32.9018C304.409 31.6658 303.399 30.6635 302.148 30.6635ZM297.837 40.4305C297.724 40.4681 297.536 40.4681 297.415 40.4305C296.436 40.0913 294.235 38.6971 294.235 36.3232C294.243 35.2757 295.079 34.4316 296.119 34.4316C296.737 34.4316 297.28 34.7255 297.626 35.1852C297.973 34.7255 298.516 34.4316 299.134 34.4316C300.174 34.4316 301.018 35.2757 301.018 36.3232C301.01 38.6971 298.817 40.0913 297.837 40.4305Z" fill="url(#paint2_linear_1_3845)"/>
<rect x="262.13" y="51.5386" width="22.1565" height="22.1565" rx="3.3913" fill="white"/>
<rect x="262.13" y="51.5386" width="22.1565" height="22.1565" rx="3.3913" stroke="#F9F9F9" stroke-width="0.452174"/>
<path d="M276.977 55.0775H269.44C267.36 55.0775 265.672 56.7581 265.672 58.8306V63.3372V64.0908C265.672 66.1633 267.36 67.8439 269.44 67.8439H270.571C270.774 67.8439 271.046 67.9795 271.174 68.1453L272.304 69.6451C272.802 70.3082 273.616 70.3082 274.113 69.6451L275.243 68.1453C275.387 67.9569 275.613 67.8439 275.846 67.8439H276.977C279.057 67.8439 280.745 66.1633 280.745 64.0908V58.8306C280.745 56.7581 279.057 55.0775 276.977 55.0775ZM273.962 63.9326H269.44C269.131 63.9326 268.875 63.6764 268.875 63.3674C268.875 63.0584 269.131 62.8022 269.44 62.8022H273.962C274.271 62.8022 274.527 63.0584 274.527 63.3674C274.527 63.6764 274.271 63.9326 273.962 63.9326ZM276.977 60.1645H269.44C269.131 60.1645 268.875 59.9082 268.875 59.5993C268.875 59.2903 269.131 59.034 269.44 59.034H276.977C277.286 59.034 277.542 59.2903 277.542 59.5993C277.542 59.9082 277.286 60.1645 276.977 60.1645Z" fill="url(#paint3_linear_1_3845)"/>
<rect x="8.84327" y="132.093" width="17.6348" height="17.6348" rx="3.3913" fill="white"/>
<rect x="8.84327" y="132.093" width="17.6348" height="17.6348" rx="3.3913" stroke="#F9F9F9" stroke-width="0.452174"/>
<path d="M20.1867 134.886H15.1344C12.9399 134.886 11.6316 136.194 11.6316 138.388V143.435C11.6316 145.635 12.9399 146.944 15.1344 146.944H20.1807C22.3752 146.944 23.6835 145.635 23.6835 143.441V138.388C23.6896 136.194 22.3813 134.886 20.1867 134.886ZM17.6606 143.254C16.3704 143.254 15.3213 142.205 15.3213 140.915C15.3213 139.624 16.3704 138.575 17.6606 138.575C18.9508 138.575 19.9998 139.624 19.9998 140.915C19.9998 142.205 18.9508 143.254 17.6606 143.254ZM21.2297 137.828C21.1996 137.9 21.1574 137.966 21.1031 138.027C21.0428 138.081 20.9765 138.123 20.9042 138.153C20.8318 138.183 20.7534 138.201 20.6751 138.201C20.5123 138.201 20.3616 138.141 20.247 138.027C20.1928 137.966 20.1505 137.9 20.1204 137.828C20.0903 137.755 20.0722 137.677 20.0722 137.599C20.0722 137.52 20.0903 137.442 20.1204 137.369C20.1505 137.291 20.1928 137.231 20.247 137.171C20.3857 137.032 20.5967 136.966 20.7896 137.008C20.8318 137.014 20.868 137.026 20.9042 137.044C20.9403 137.056 20.9765 137.074 21.0127 137.098C21.0428 137.116 21.073 137.146 21.1031 137.171C21.1574 137.231 21.1996 137.291 21.2297 137.369C21.2599 137.442 21.278 137.52 21.278 137.599C21.278 137.677 21.2599 137.755 21.2297 137.828Z" fill="#7A3DE2"/>
<rect x="28.2866" y="155.156" width="17.6348" height="17.6348" rx="3.3913" fill="white"/>
<rect x="28.2866" y="155.156" width="17.6348" height="17.6348" rx="3.3913" stroke="#F9F9F9" stroke-width="0.452174"/>
<path d="M43.1329 166.503C43.1329 168.698 41.8246 170.006 39.6301 170.006H38.9126C38.581 170.006 38.3097 169.735 38.3097 169.403V165.924C38.3097 165.762 38.4424 165.623 38.6051 165.623L39.6663 165.605C39.7507 165.599 39.823 165.539 39.8411 165.454L40.0521 164.303C40.0702 164.194 39.9858 164.092 39.8712 164.092L38.5871 164.11C38.4183 164.11 38.2856 163.977 38.2796 163.814L38.2555 162.337C38.2555 162.241 38.3338 162.156 38.4363 162.156L39.8833 162.132C39.9858 162.132 40.0642 162.054 40.0642 161.951L40.0401 160.504C40.0401 160.402 39.9617 160.323 39.8592 160.323L38.2314 160.348C37.2305 160.366 36.4347 161.186 36.4528 162.186L36.483 163.844C36.489 164.013 36.3563 164.146 36.1875 164.152L35.4641 164.164C35.3616 164.164 35.2832 164.242 35.2832 164.345L35.3013 165.49C35.3013 165.593 35.3796 165.671 35.4821 165.671L36.2056 165.659C36.3744 165.659 36.5071 165.792 36.5131 165.955L36.5673 169.391C36.5734 169.729 36.3021 170.006 35.9644 170.006H34.5778C32.3832 170.006 31.075 168.698 31.075 166.497V161.451C31.075 159.256 32.3832 157.948 34.5778 157.948H39.6301C41.8246 157.948 43.1329 159.256 43.1329 161.451V166.503Z" fill="#7A3DE2"/>
<rect x="2.96534" y="173.242" width="17.6348" height="17.6348" rx="3.3913" fill="white"/>
<rect x="2.96534" y="173.242" width="17.6348" height="17.6348" rx="3.3913" stroke="#F9F9F9" stroke-width="0.452174"/>
<path d="M14.7971 177.24H8.76816C6.95946 177.24 5.75366 178.445 5.75366 180.254V183.872C5.75366 185.68 6.95946 186.886 8.76816 186.886H14.7971C16.6058 186.886 17.8116 185.68 17.8116 183.872V180.254C17.8116 178.445 16.6058 177.24 14.7971 177.24ZM12.9221 182.684L11.433 183.576C10.8301 183.938 10.3357 183.661 10.3357 182.955V181.165C10.3357 180.459 10.8301 180.182 11.433 180.544L12.9221 181.436C13.4949 181.786 13.4949 182.34 12.9221 182.684Z" fill="#7A3DE2"/>
<g filter="url(#filter0_dddd_1_3845)">
<rect x="59.8779" y="46.1719" width="194.435" height="106.713" rx="3.61739" fill="white"/>
<rect x="60.104" y="46.398" width="193.983" height="106.261" rx="3.3913" stroke="#E3E3E3" stroke-width="0.452174"/>
<rect x="66.2084" y="52.5023" width="181.774" height="94.0522" rx="3.61739" fill="#F9F9F9"/>
<path d="M80.1241 101.74C83.5736 93.6946 104.447 83.4387 120.354 77.6538C136.261 71.8689 208.78 58.0746 218.923 72.29C229.066 86.5055 217.21 94.0874 220.96 101.74C224.711 109.393 244.24 107.218 236.819 120.247C229.398 133.276 192.152 144.294 164.73 144.294C137.307 144.294 89.102 140.766 80.1239 130.261C71.1457 119.757 76.6745 109.786 80.1241 101.74Z" fill="#ECECEC"/>
<path opacity="0.2" d="M86.104 126.207C86.104 125.208 86.9138 124.398 87.9127 124.398H93.3388C94.3377 124.398 95.1475 125.208 95.1475 126.207V138.415H86.104V126.207Z" fill="#7A3DE2"/>
<path opacity="0.2" d="M105.095 119.424C105.095 118.425 105.905 117.615 106.904 117.615H112.33C113.329 117.615 114.139 118.425 114.139 119.424V138.415H105.095V119.424Z" fill="#7A3DE2"/>
<path opacity="0.2" d="M124.087 114.902C124.087 113.903 124.896 113.094 125.895 113.094H131.321C132.32 113.094 133.13 113.903 133.13 114.902V138.415H124.087V114.902Z" fill="#7A3DE2"/>
<path opacity="0.2" d="M143.078 107.215C143.078 106.216 143.888 105.407 144.887 105.407H150.313C151.312 105.407 152.121 106.216 152.121 107.215V138.415H143.078V107.215Z" fill="#7A3DE2"/>
<path opacity="0.2" d="M162.069 99.5284C162.069 98.5295 162.879 97.7197 163.878 97.7197H169.304C170.303 97.7197 171.113 98.5295 171.113 99.5284V138.415H162.069V99.5284Z" fill="#7A3DE2"/>
<path opacity="0.2" d="M200.052 83.7023C200.052 82.7034 200.862 81.8936 201.861 81.8936H207.287C208.286 81.8936 209.095 82.7034 209.095 83.7023V138.415H200.052V83.7023Z" fill="#7A3DE2"/>
<path opacity="0.2" d="M181.061 92.7458C181.061 91.7469 181.87 90.9371 182.869 90.9371H188.295C189.294 90.9371 190.104 91.7469 190.104 92.7458V138.415H181.061V92.7458Z" fill="#7A3DE2"/>
<path opacity="0.2" d="M219.043 71.4936C219.043 70.4947 219.853 69.6849 220.852 69.6849H226.278C227.277 69.6849 228.087 70.4947 228.087 71.4936V138.415H219.043V71.4936Z" fill="#7A3DE2"/>
<path opacity="0.8" fill-rule="evenodd" clip-rule="evenodd" d="M228.251 70.117L209.547 75.0544L213.743 79.7092C205.131 86.6232 186.001 99.95 156.191 109.927C120.1 122.007 94.3334 120.517 87.7538 120.136C86.6671 120.073 86.1038 120.041 86.1038 120.105L86.104 122.918C86.104 123.77 86.7765 124.533 87.7024 124.654C93.6303 125.427 116.179 126.916 157.547 113.319C192.19 101.932 209.585 89.3933 216.77 83.0672L220.01 86.6622L228.251 70.117Z" fill="#7A3DE2"/>
<path d="M58.9345 154.614C59.5071 153.29 60.812 152.433 62.2547 152.433H251.936C253.379 152.433 254.683 153.29 255.256 154.614L268.782 185.894H45.4083L58.9345 154.614Z" fill="#ECECEC"/>
<rect x="45.4083" y="185.441" width="223.374" height="5.42609" rx="0.452174" fill="#E3E3E3"/>
<path d="M62.3949 156.954H251.935L257.577 169.615H56.7587L62.3949 156.954Z" fill="#D6D6D6"/>
<path d="M133.384 172.555H180.807C181.079 172.555 181.321 172.716 181.428 172.959L181.465 173.069L183.726 182.112C183.833 182.54 183.509 182.954 183.067 182.954H131.123C130.709 182.954 130.399 182.59 130.45 182.192L130.465 182.112L132.726 173.069C132.801 172.767 133.073 172.555 133.384 172.555Z" fill="#E3E3E3" stroke="#C2C2C2" stroke-width="0.452174"/>
<g filter="url(#filter1_dddd_1_3845)">
<path d="M198.558 52.2682C210.146 71.5837 210.725 85.2965 208.182 86.33C205.277 87.5103 197.111 84.1156 182.937 61.8936C168.529 39.3037 166.521 23.859 169.708 21.5177C172.88 19.6373 186.97 32.9527 198.558 52.2682Z" fill="#B1B1B1"/>
<path d="M130.403 70.1363C143.318 59.9624 153.969 44.1363 153.969 44.1363C153.969 44.1363 157.595 39.1624 160.767 33.5102C163.939 27.858 166.658 21.7537 166.658 21.7537C166.658 21.7537 165.978 27.858 167.565 34.8667C169.151 41.8754 170.62 43.9102 170.964 44.8145C171.308 45.7189 175.948 55.8928 180.254 61.9972C184.56 68.1015 189.997 76.4667 194.303 80.5363C198.608 84.6059 199.369 85.2841 201.635 86.8667C203.901 88.4493 207.526 89.3537 207.526 89.3537C207.526 89.3537 201.78 89.5798 195.889 90.7102C189.997 91.8406 183.652 93.8754 183.652 93.8754L168.471 99.5276L153.743 105.406L132.896 116.032C132.896 116.032 126.551 119.649 125.645 120.328L125.608 120.355C124.683 121.048 122.635 122.582 117.941 122.136C113.182 121.684 108.197 118.067 105.251 114.902C102.306 111.736 100.946 108.571 100.493 105.858C100.04 103.145 99.813 101.336 100.946 96.3624C102.079 91.3885 110.464 86.1885 111.37 85.2841C112.276 84.3798 117.488 80.3102 130.403 70.1363Z" fill="#C2C2C2"/>
<path d="M122.328 121.684C125.273 121.006 132.529 116.032 132.529 116.032C132.529 116.032 125.052 111.736 118.707 103.145C112.363 94.5537 111.456 85.5102 111.456 85.5102C111.456 85.5102 103.287 91.1624 101.713 94.7798C100.139 98.3972 100.146 100.432 100.13 100.884C100.113 101.336 99.6498 106.084 102.834 111.736C106.019 117.388 110.776 120.328 113.515 121.232C116.254 122.136 116.481 122.362 118.249 122.362C120.017 122.362 119.382 122.362 122.328 121.684Z" fill="#FCFCFC" stroke="#F9F9F9" stroke-width="0.452174"/>
<path d="M181.739 64.258C167.507 44.3624 166.291 23.1102 166.291 23.1102L160.665 33.7363C160.665 33.7363 153.93 44.3624 153.704 44.5885C153.478 44.8145 157.722 58.1537 164.969 70.8145C172.217 83.4754 183.096 94.1015 183.096 94.1015C183.096 94.1015 186.042 92.745 194.879 91.6145C203.717 90.4841 207.073 89.1276 207.073 89.1276C207.073 89.1276 195.971 84.1537 181.739 64.258Z" fill="#D9D9D9"/>
<path d="M174.218 131.181L159.263 133.894L138.19 113.094L150.879 106.311L156.997 103.598L174.218 124.624V131.181Z" fill="#D9D9D9"/>
<path d="M173.71 46.8258L181.911 44.6387C181.911 44.6387 195.915 65.4481 195.704 66.5866C195.494 67.7251 189.545 72.6069 189.319 72.6045C189.093 72.6021 185.039 67.3759 180.97 61.0382C176.902 54.7005 173.71 46.8258 173.71 46.8258Z" fill="#E3E3E3"/>
<path d="M182.192 44.7521C182.456 44.6014 182.899 44.6512 183.554 45.038C184.191 45.4145 184.954 46.068 185.794 46.9566C187.471 48.7313 189.42 51.4079 191.238 54.5655C193.055 57.7229 194.389 60.7512 195.08 63.0912C195.426 64.2628 195.607 65.2497 195.612 65.9886C195.617 66.7478 195.437 67.1554 195.174 67.3065C194.91 67.4575 194.466 67.4074 193.811 67.0203C193.174 66.6437 192.411 65.9903 191.571 65.1017C189.894 63.327 187.946 60.6505 186.128 57.4931C184.311 54.3356 182.976 51.3071 182.285 48.9671C181.939 47.7954 181.758 46.8085 181.753 46.0697C181.748 45.3103 181.929 44.9031 182.192 44.7521Z" fill="#FCFCFC" stroke="#CECECE" stroke-width="0.452174"/>
<mask id="path-41-inside-1_1_3845" fill="white">
<path fill-rule="evenodd" clip-rule="evenodd" d="M209.761 88.7173C215.424 85.3352 210.74 67.1337 199.299 48.0631C187.858 28.9926 173.993 16.2747 168.33 19.6569C162.667 23.0391 167.351 41.2406 178.792 60.3111C190.233 79.3816 204.099 92.0995 209.761 88.7173ZM207.625 85.9963C210.022 85.0444 209.173 71.6711 197.732 52.6005C186.291 33.53 172.868 20.0981 169.893 21.8616C166.913 24.0739 170.073 39.952 183.085 61.6408C194.526 80.7113 204.889 87.0835 207.625 85.9963Z"/>
</mask>
<path fill-rule="evenodd" clip-rule="evenodd" d="M209.761 88.7173C215.424 85.3352 210.74 67.1337 199.299 48.0631C187.858 28.9926 173.993 16.2747 168.33 19.6569C162.667 23.0391 167.351 41.2406 178.792 60.3111C190.233 79.3816 204.099 92.0995 209.761 88.7173ZM207.625 85.9963C210.022 85.0444 209.173 71.6711 197.732 52.6005C186.291 33.53 172.868 20.0981 169.893 21.8616C166.913 24.0739 170.073 39.952 183.085 61.6408C194.526 80.7113 204.889 87.0835 207.625 85.9963Z" fill="white"/>
<path d="M199.299 48.0631L198.911 48.2958L198.911 48.2958L199.299 48.0631ZM168.33 19.6569L168.562 20.0451L168.562 20.0451L168.33 19.6569ZM178.792 60.3111L178.404 60.5437L178.404 60.5437L178.792 60.3111ZM197.732 52.6005L197.345 52.8332L197.345 52.8332L197.732 52.6005ZM207.625 85.9963L207.792 86.4165L207.792 86.4165L207.625 85.9963ZM169.893 21.8616L169.662 21.4726L169.642 21.4845L169.623 21.4985L169.893 21.8616ZM183.085 61.6408L182.697 61.8734L182.697 61.8734L183.085 61.6408ZM199.299 48.0631L198.911 48.2958C204.616 57.8045 208.627 67.082 210.506 74.3861C211.447 78.0411 211.847 81.1761 211.674 83.5876C211.499 86.0145 210.755 87.5974 209.53 88.3291L209.761 88.7173L209.993 89.1055C211.599 88.1462 212.393 86.1856 212.576 83.6525C212.759 81.104 212.335 77.8626 211.382 74.1606C209.475 66.7508 205.423 57.3923 199.687 47.8305L199.299 48.0631ZM168.33 19.6569L168.562 20.0451C169.787 19.313 171.538 19.4065 173.765 20.3997C175.977 21.3865 178.558 23.2196 181.342 25.7735C186.906 30.8772 193.207 38.7871 198.911 48.2958L199.299 48.0631L199.687 47.8305C193.95 38.2687 187.598 30.2844 181.953 25.107C179.133 22.5204 176.471 20.6163 174.133 19.5737C171.81 18.5376 169.704 18.3096 168.098 19.2687L168.33 19.6569ZM178.792 60.3111L179.18 60.0785C173.475 50.5697 169.465 41.2922 167.585 33.9881C166.644 30.3331 166.244 27.1981 166.418 24.7866C166.592 22.3597 167.336 20.7769 168.562 20.0451L168.33 19.6569L168.098 19.2687C166.492 20.228 165.698 22.1886 165.516 24.7217C165.332 27.2702 165.756 30.5116 166.709 34.2136C168.616 41.6234 172.668 50.9819 178.404 60.5437L178.792 60.3111ZM209.761 88.7173L209.53 88.3291C208.304 89.0612 206.553 88.9677 204.327 87.9746C202.114 86.9877 199.534 85.1547 196.749 82.6008C191.185 77.4971 184.884 69.5872 179.18 60.0785L178.792 60.3111L178.404 60.5437C184.141 70.1055 190.493 78.0899 196.138 83.2672C198.958 85.8538 201.621 87.758 203.958 88.8005C206.281 89.8367 208.387 90.0646 209.993 89.1055L209.761 88.7173ZM197.732 52.6005L197.345 52.8332C203.045 62.3347 206.097 70.4016 207.427 76.1942C208.093 79.0932 208.324 81.4066 208.248 83.0374C208.21 83.8547 208.095 84.4786 207.934 84.9126C207.768 85.359 207.583 85.5268 207.459 85.5761L207.625 85.9963L207.792 86.4165C208.267 86.2278 208.58 85.7695 208.781 85.2278C208.987 84.6738 209.111 83.9477 209.151 83.0795C209.232 81.3391 208.985 78.9388 208.309 75.9917C206.954 70.0919 203.861 61.9369 198.12 52.3679L197.732 52.6005ZM169.893 21.8616L170.124 22.2506C170.32 22.1342 170.69 22.0986 171.325 22.3207C171.943 22.5368 172.717 22.9649 173.629 23.6083C175.448 24.8923 177.739 26.9771 180.308 29.727C185.441 35.2226 191.639 43.3221 197.345 52.8332L197.732 52.6005L198.12 52.3679C192.385 42.8085 186.15 34.6568 180.969 29.1096C178.38 26.3382 176.041 24.2038 174.15 22.8693C173.206 22.2035 172.354 21.7226 171.623 21.4671C170.91 21.2177 170.21 21.1481 169.662 21.4726L169.893 21.8616ZM183.085 61.6408L183.473 61.4081C176.982 50.5892 172.957 41.2327 170.926 34.32C169.91 30.8612 169.398 28.0308 169.319 25.9434C169.28 24.8988 169.35 24.0589 169.509 23.4269C169.67 22.7883 169.908 22.4133 170.162 22.2246L169.893 21.8616L169.623 21.4985C169.133 21.8629 168.818 22.4681 168.632 23.206C168.444 23.9505 168.374 24.8834 168.415 25.9774C168.498 28.1672 169.03 31.0766 170.058 34.575C172.115 41.5766 176.176 51.0036 182.697 61.8734L183.085 61.6408ZM207.625 85.9963L207.459 85.5761C207.227 85.668 206.862 85.6989 206.339 85.5998C205.821 85.5019 205.186 85.2839 204.442 84.9241C202.955 84.2048 201.08 82.9412 198.918 81.0383C194.598 77.2347 189.175 70.9131 183.473 61.4081L183.085 61.6408L182.697 61.8734C188.436 71.439 193.915 77.8387 198.32 81.7171C200.522 83.6552 202.465 84.9726 204.048 85.7383C204.84 86.1209 205.552 86.3714 206.17 86.4884C206.782 86.6042 207.34 86.5963 207.792 86.4165L207.625 85.9963Z" fill="#CECECE" mask="url(#path-41-inside-1_1_3845)"/>
<path d="M151.217 106.311L174.504 131.181V124.624L157.322 103.598L151.217 106.311Z" fill="#B1B1B1"/>
</g>
</g>
<g filter="url(#filter2_dddd_1_3845)">
<path fill-rule="evenodd" clip-rule="evenodd" d="M11.5304 3.91406C10.5315 3.91406 9.72168 4.72384 9.72168 5.72276V28.7836C9.72168 29.7825 10.5315 30.5923 11.5304 30.5923H13.1856V36.4706L20.9253 30.5923H79.3565C80.3554 30.5923 81.1652 29.7825 81.1652 28.7836V5.72276C81.1652 4.72384 80.3554 3.91406 79.3565 3.91406H11.5304Z" fill="#FCFCFC"/>
<path d="M13.1856 30.5923H13.4117V30.3662H13.1856V30.5923ZM13.1856 36.4706H12.9595V36.9262L13.3224 36.6506L13.1856 36.4706ZM20.9253 30.5923V30.3662H20.8492L20.7886 30.4123L20.9253 30.5923ZM9.94777 5.72276C9.94777 4.84871 10.6563 4.14015 11.5304 4.14015V3.68798C10.4066 3.68798 9.49559 4.59898 9.49559 5.72276H9.94777ZM9.94777 28.7836V5.72276H9.49559V28.7836H9.94777ZM11.5304 30.3662C10.6563 30.3662 9.94777 29.6577 9.94777 28.7836H9.49559C9.49559 29.9074 10.4066 30.8184 11.5304 30.8184V30.3662ZM13.1856 30.3662H11.5304V30.8184H13.1856V30.3662ZM12.9595 30.5923V36.4706H13.4117V30.5923H12.9595ZM13.3224 36.6506L21.0621 30.7724L20.7886 30.4123L13.0489 36.2905L13.3224 36.6506ZM79.3565 30.3662H20.9253V30.8184H79.3565V30.3662ZM80.9391 28.7836C80.9391 29.6577 80.2305 30.3662 79.3565 30.3662V30.8184C80.4802 30.8184 81.3913 29.9074 81.3913 28.7836H80.9391ZM80.9391 5.72276V28.7836H81.3913V5.72276H80.9391ZM79.3565 4.14015C80.2305 4.14015 80.9391 4.84871 80.9391 5.72276H81.3913C81.3913 4.59898 80.4802 3.68798 79.3565 3.68798V4.14015ZM11.5304 4.14015H79.3565V3.68798H11.5304V4.14015Z" fill="#ECECEC"/>
<g filter="url(#filter3_i_1_3845)">
<circle cx="30.9738" cy="15.2184" r="3.61739" fill="#515151"/>
</g>
<g filter="url(#filter4_i_1_3845)">
<circle cx="45.4434" cy="17.4793" r="3.61739" fill="#515151"/>
</g>
<g filter="url(#filter5_i_1_3845)">
<circle cx="59.913" cy="17.4793" r="3.61739" fill="#515151"/>
</g>
</g>
<g clip-path="url(#clip0_1_3845)" filter="url(#filter6_dddd_1_3845)">
<path fill-rule="evenodd" clip-rule="evenodd" d="M47.2521 37.8271C46.2531 37.8271 45.4434 38.6368 45.4434 39.6358V62.6966C45.4434 63.6955 46.2531 64.5053 47.2521 64.5053H103.777L111.272 70.3835V64.5053H112.817C113.816 64.5053 114.626 63.6955 114.626 62.6966V39.6358C114.626 38.6368 113.816 37.8271 112.817 37.8271H47.2521Z" fill="#ECECEC"/>
<g filter="url(#filter7_i_1_3845)">
<circle cx="65.3391" cy="50.9401" r="3.61739" fill="#8A8A8A"/>
</g>
<g filter="url(#filter8_i_1_3845)">
<circle cx="79.8087" cy="50.9401" r="3.61739" fill="#8A8A8A"/>
</g>
<g filter="url(#filter9_i_1_3845)">
<circle cx="94.2782" cy="48.6792" r="3.61739" fill="#8A8A8A"/>
</g>
</g>
<defs>
<filter id="filter0_dddd_1_3845" x="25.9649" y="16.7806" width="262.261" height="226.991" filterUnits="userSpaceOnUse" color-interpolation-filters="sRGB">
<feFlood flood-opacity="0" result="BackgroundImageFix"/>
<feColorMatrix in="SourceAlpha" type="matrix" values="0 0 0 0 0 0 0 0 0 0 0 0 0 0 0 0 0 0 127 0" result="hardAlpha"/>
<feOffset dy="1.8087"/>
<feGaussianBlur stdDeviation="2.03478"/>
<feColorMatrix type="matrix" values="0 0 0 0 0 0 0 0 0 0 0 0 0 0 0 0 0 0 0.1 0"/>
<feBlend mode="normal" in2="BackgroundImageFix" result="effect1_dropShadow_1_3845"/>
<feColorMatrix in="SourceAlpha" type="matrix" values="0 0 0 0 0 0 0 0 0 0 0 0 0 0 0 0 0 0 127 0" result="hardAlpha"/>
<feOffset dy="7.68696"/>
<feGaussianBlur stdDeviation="3.84348"/>
<feColorMatrix type="matrix" values="0 0 0 0 0 0 0 0 0 0 0 0 0 0 0 0 0 0 0.09 0"/>
<feBlend mode="normal" in2="effect1_dropShadow_1_3845" result="effect2_dropShadow_1_3845"/>
<feColorMatrix in="SourceAlpha" type="matrix" values="0 0 0 0 0 0 0 0 0 0 0 0 0 0 0 0 0 0 127 0" result="hardAlpha"/>
<feOffset dy="17.1826"/>
<feGaussianBlur stdDeviation="5.2"/>
<feColorMatrix type="matrix" values="0 0 0 0 0 0 0 0 0 0 0 0 0 0 0 0 0 0 0.05 0"/>
<feBlend mode="normal" in2="effect2_dropShadow_1_3845" result="effect3_dropShadow_1_3845"/>
<feColorMatrix in="SourceAlpha" type="matrix" values="0 0 0 0 0 0 0 0 0 0 0 0 0 0 0 0 0 0 127 0" result="hardAlpha"/>
<feOffset dy="30.2957"/>
<feGaussianBlur stdDeviation="6.10435"/>
<feColorMatrix type="matrix" values="0 0 0 0 0 0 0 0 0 0 0 0 0 0 0 0 0 0 0.01 0"/>
<feBlend mode="normal" in2="effect3_dropShadow_1_3845" result="effect4_dropShadow_1_3845"/>
<feBlend mode="normal" in="SourceGraphic" in2="effect4_dropShadow_1_3845" result="shape"/>
</filter>
<filter id="filter1_dddd_1_3845" x="89.9231" y="16.7806" width="133.19" height="152.383" filterUnits="userSpaceOnUse" color-interpolation-filters="sRGB">
<feFlood flood-opacity="0" result="BackgroundImageFix"/>
<feColorMatrix in="SourceAlpha" type="matrix" values="0 0 0 0 0 0 0 0 0 0 0 0 0 0 0 0 0 0 127 0" result="hardAlpha"/>
<feOffset dy="1.35652"/>
<feGaussianBlur stdDeviation="1.8087"/>
<feColorMatrix type="matrix" values="0 0 0 0 0 0 0 0 0 0 0 0 0 0 0 0 0 0 0.1 0"/>
<feBlend mode="normal" in2="BackgroundImageFix" result="effect1_dropShadow_1_3845"/>
<feColorMatrix in="SourceAlpha" type="matrix" values="0 0 0 0 0 0 0 0 0 0 0 0 0 0 0 0 0 0 127 0" result="hardAlpha"/>
<feOffset dy="6.33043"/>
<feGaussianBlur stdDeviation="3.16522"/>
<feColorMatrix type="matrix" values="0 0 0 0 0 0 0 0 0 0 0 0 0 0 0 0 0 0 0.09 0"/>
<feBlend mode="normal" in2="effect1_dropShadow_1_3845" result="effect2_dropShadow_1_3845"/>
<feColorMatrix in="SourceAlpha" type="matrix" values="0 0 0 0 0 0 0 0 0 0 0 0 0 0 0 0 0 0 127 0" result="hardAlpha"/>
<feOffset dy="14.0174"/>
<feGaussianBlur stdDeviation="4.29565"/>
<feColorMatrix type="matrix" values="0 0 0 0 0 0 0 0 0 0 0 0 0 0 0 0 0 0 0.05 0"/>
<feBlend mode="normal" in2="effect2_dropShadow_1_3845" result="effect3_dropShadow_1_3845"/>
<feColorMatrix in="SourceAlpha" type="matrix" values="0 0 0 0 0 0 0 0 0 0 0 0 0 0 0 0 0 0 127 0" result="hardAlpha"/>
<feOffset dy="24.8696"/>
<feGaussianBlur stdDeviation="4.97391"/>
<feColorMatrix type="matrix" values="0 0 0 0 0 0 0 0 0 0 0 0 0 0 0 0 0 0 0.01 0"/>
<feBlend mode="normal" in2="effect3_dropShadow_1_3845" result="effect4_dropShadow_1_3845"/>
<feBlend mode="normal" in="SourceGraphic" in2="effect4_dropShadow_1_3845" result="shape"/>
</filter>
<filter id="filter2_dddd_1_3845" x="0.904301" y="1.87928" width="92.0173" height="67.1478" filterUnits="userSpaceOnUse" color-interpolation-filters="sRGB">
<feFlood flood-opacity="0" result="BackgroundImageFix"/>
<feColorMatrix in="SourceAlpha" type="matrix" values="0 0 0 0 0 0 0 0 0 0 0 0 0 0 0 0 0 0 127 0" result="hardAlpha"/>
<feOffset dy="1.35652"/>
<feGaussianBlur stdDeviation="1.58261"/>
<feColorMatrix type="matrix" values="0 0 0 0 0 0 0 0 0 0 0 0 0 0 0 0 0 0 0.1 0"/>
<feBlend mode="normal" in2="BackgroundImageFix" result="effect1_dropShadow_1_3845"/>
<feColorMatrix in="SourceAlpha" type="matrix" values="0 0 0 0 0 0 0 0 0 0 0 0 0 0 0 0 0 0 127 0" result="hardAlpha"/>
<feOffset dy="5.42609"/>
<feGaussianBlur stdDeviation="2.71304"/>
<feColorMatrix type="matrix" values="0 0 0 0 0 0 0 0 0 0 0 0 0 0 0 0 0 0 0.09 0"/>
<feBlend mode="normal" in2="effect1_dropShadow_1_3845" result="effect2_dropShadow_1_3845"/>
<feColorMatrix in="SourceAlpha" type="matrix" values="0 0 0 0 0 0 0 0 0 0 0 0 0 0 0 0 0 0 127 0" result="hardAlpha"/>
<feOffset dy="12.2087"/>
<feGaussianBlur stdDeviation="3.61739"/>
<feColorMatrix type="matrix" values="0 0 0 0 0 0 0 0 0 0 0 0 0 0 0 0 0 0 0.05 0"/>
<feBlend mode="normal" in2="effect2_dropShadow_1_3845" result="effect3_dropShadow_1_3845"/>
<feColorMatrix in="SourceAlpha" type="matrix" values="0 0 0 0 0 0 0 0 0 0 0 0 0 0 0 0 0 0 127 0" result="hardAlpha"/>
<feOffset dy="21.2522"/>
<feGaussianBlur stdDeviation="4.29565"/>
<feColorMatrix type="matrix" values="0 0 0 0 0 0 0 0 0 0 0 0 0 0 0 0 0 0 0.01 0"/>
<feBlend mode="normal" in2="effect3_dropShadow_1_3845" result="effect4_dropShadow_1_3845"/>
<feBlend mode="normal" in="SourceGraphic" in2="effect4_dropShadow_1_3845" result="shape"/>
</filter>
<filter id="filter3_i_1_3845" x="27.3564" y="11.601" width="7.23474" height="8.13913" filterUnits="userSpaceOnUse" color-interpolation-filters="sRGB">
<feFlood flood-opacity="0" result="BackgroundImageFix"/>
<feBlend mode="normal" in="SourceGraphic" in2="BackgroundImageFix" result="shape"/>
<feColorMatrix in="SourceAlpha" type="matrix" values="0 0 0 0 0 0 0 0 0 0 0 0 0 0 0 0 0 0 127 0" result="hardAlpha"/>
<feOffset dy="0.904348"/>
<feGaussianBlur stdDeviation="0.904348"/>
<feComposite in2="hardAlpha" operator="arithmetic" k2="-1" k3="1"/>
<feColorMatrix type="matrix" values="0 0 0 0 0.133333 0 0 0 0 0.133333 0 0 0 0 0.133333 0 0 0 0.25 0"/>
<feBlend mode="normal" in2="shape" result="effect1_innerShadow_1_3845"/>
</filter>
<filter id="filter4_i_1_3845" x="41.826" y="13.8619" width="7.23474" height="8.13913" filterUnits="userSpaceOnUse" color-interpolation-filters="sRGB">
<feFlood flood-opacity="0" result="BackgroundImageFix"/>
<feBlend mode="normal" in="SourceGraphic" in2="BackgroundImageFix" result="shape"/>
<feColorMatrix in="SourceAlpha" type="matrix" values="0 0 0 0 0 0 0 0 0 0 0 0 0 0 0 0 0 0 127 0" result="hardAlpha"/>
<feOffset dy="0.904348"/>
<feGaussianBlur stdDeviation="0.904348"/>
<feComposite in2="hardAlpha" operator="arithmetic" k2="-1" k3="1"/>
<feColorMatrix type="matrix" values="0 0 0 0 0.133333 0 0 0 0 0.133333 0 0 0 0 0.133333 0 0 0 0.25 0"/>
<feBlend mode="normal" in2="shape" result="effect1_innerShadow_1_3845"/>
</filter>
<filter id="filter5_i_1_3845" x="56.2957" y="13.8619" width="7.23474" height="8.13913" filterUnits="userSpaceOnUse" color-interpolation-filters="sRGB">
<feFlood flood-opacity="0" result="BackgroundImageFix"/>
<feBlend mode="normal" in="SourceGraphic" in2="BackgroundImageFix" result="shape"/>
<feColorMatrix in="SourceAlpha" type="matrix" values="0 0 0 0 0 0 0 0 0 0 0 0 0 0 0 0 0 0 127 0" result="hardAlpha"/>
<feOffset dy="0.904348"/>
<feGaussianBlur stdDeviation="0.904348"/>
<feComposite in2="hardAlpha" operator="arithmetic" k2="-1" k3="1"/>
<feColorMatrix type="matrix" values="0 0 0 0 0.133333 0 0 0 0 0.133333 0 0 0 0 0.133333 0 0 0 0.25 0"/>
<feBlend mode="normal" in2="shape" result="effect1_innerShadow_1_3845"/>
</filter>
<filter id="filter6_dddd_1_3845" x="31.426" y="36.0184" width="91.7913" height="66.9217" filterUnits="userSpaceOnUse" color-interpolation-filters="sRGB">
<feFlood flood-opacity="0" result="BackgroundImageFix"/>
<feColorMatrix in="SourceAlpha" type="matrix" values="0 0 0 0 0 0 0 0 0 0 0 0 0 0 0 0 0 0 127 0" result="hardAlpha"/>
<feOffset dy="1.35652"/>
<feGaussianBlur stdDeviation="1.58261"/>
<feColorMatrix type="matrix" values="0 0 0 0 0 0 0 0 0 0 0 0 0 0 0 0 0 0 0.1 0"/>
<feBlend mode="normal" in2="BackgroundImageFix" result="effect1_dropShadow_1_3845"/>
<feColorMatrix in="SourceAlpha" type="matrix" values="0 0 0 0 0 0 0 0 0 0 0 0 0 0 0 0 0 0 127 0" result="hardAlpha"/>
<feOffset dy="5.42609"/>
<feGaussianBlur stdDeviation="2.71304"/>
<feColorMatrix type="matrix" values="0 0 0 0 0 0 0 0 0 0 0 0 0 0 0 0 0 0 0.09 0"/>
<feBlend mode="normal" in2="effect1_dropShadow_1_3845" result="effect2_dropShadow_1_3845"/>
<feColorMatrix in="SourceAlpha" type="matrix" values="0 0 0 0 0 0 0 0 0 0 0 0 0 0 0 0 0 0 127 0" result="hardAlpha"/>
<feOffset dy="12.2087"/>
<feGaussianBlur stdDeviation="3.61739"/>
<feColorMatrix type="matrix" values="0 0 0 0 0 0 0 0 0 0 0 0 0 0 0 0 0 0 0.05 0"/>
<feBlend mode="normal" in2="effect2_dropShadow_1_3845" result="effect3_dropShadow_1_3845"/>
<feColorMatrix in="SourceAlpha" type="matrix" values="0 0 0 0 0 0 0 0 0 0 0 0 0 0 0 0 0 0 127 0" result="hardAlpha"/>
<feOffset dy="21.2522"/>
<feGaussianBlur stdDeviation="4.29565"/>
<feColorMatrix type="matrix" values="0 0 0 0 0 0 0 0 0 0 0 0 0 0 0 0 0 0 0.01 0"/>
<feBlend mode="normal" in2="effect3_dropShadow_1_3845" result="effect4_dropShadow_1_3845"/>
<feBlend mode="normal" in="SourceGraphic" in2="effect4_dropShadow_1_3845" result="shape"/>
</filter>
<filter id="filter7_i_1_3845" x="61.7217" y="47.3227" width="7.23474" height="8.13913" filterUnits="userSpaceOnUse" color-interpolation-filters="sRGB">
<feFlood flood-opacity="0" result="BackgroundImageFix"/>
<feBlend mode="normal" in="SourceGraphic" in2="BackgroundImageFix" result="shape"/>
<feColorMatrix in="SourceAlpha" type="matrix" values="0 0 0 0 0 0 0 0 0 0 0 0 0 0 0 0 0 0 127 0" result="hardAlpha"/>
<feOffset dy="0.904348"/>
<feGaussianBlur stdDeviation="0.904348"/>
<feComposite in2="hardAlpha" operator="arithmetic" k2="-1" k3="1"/>
<feColorMatrix type="matrix" values="0 0 0 0 0.0541667 0 0 0 0 0.0541667 0 0 0 0 0.0541667 0 0 0 0.25 0"/>
<feBlend mode="normal" in2="shape" result="effect1_innerShadow_1_3845"/>
</filter>
<filter id="filter8_i_1_3845" x="76.1913" y="47.3227" width="7.23474" height="8.13913" filterUnits="userSpaceOnUse" color-interpolation-filters="sRGB">
<feFlood flood-opacity="0" result="BackgroundImageFix"/>
<feBlend mode="normal" in="SourceGraphic" in2="BackgroundImageFix" result="shape"/>
<feColorMatrix in="SourceAlpha" type="matrix" values="0 0 0 0 0 0 0 0 0 0 0 0 0 0 0 0 0 0 127 0" result="hardAlpha"/>
<feOffset dy="0.904348"/>
<feGaussianBlur stdDeviation="0.904348"/>
<feComposite in2="hardAlpha" operator="arithmetic" k2="-1" k3="1"/>
<feColorMatrix type="matrix" values="0 0 0 0 0.0541667 0 0 0 0 0.0541667 0 0 0 0 0.0541667 0 0 0 0.25 0"/>
<feBlend mode="normal" in2="shape" result="effect1_innerShadow_1_3845"/>
</filter>
<filter id="filter9_i_1_3845" x="90.6608" y="45.0618" width="7.23474" height="8.13913" filterUnits="userSpaceOnUse" color-interpolation-filters="sRGB">
<feFlood flood-opacity="0" result="BackgroundImageFix"/>
<feBlend mode="normal" in="SourceGraphic" in2="BackgroundImageFix" result="shape"/>
<feColorMatrix in="SourceAlpha" type="matrix" values="0 0 0 0 0 0 0 0 0 0 0 0 0 0 0 0 0 0 127 0" result="hardAlpha"/>
<feOffset dy="0.904348"/>
<feGaussianBlur stdDeviation="0.904348"/>
<feComposite in2="hardAlpha" operator="arithmetic" k2="-1" k3="1"/>
<feColorMatrix type="matrix" values="0 0 0 0 0.0541667 0 0 0 0 0.0541667 0 0 0 0 0.0541667 0 0 0 0.25 0"/>
<feBlend mode="normal" in2="shape" result="effect1_innerShadow_1_3845"/>
</filter>
<radialGradient id="paint0_radial_1_3845" cx="0" cy="0" r="1" gradientUnits="userSpaceOnUse" gradientTransform="translate(151.67 284.923) rotate(-90) scale(170.922)">
<stop stop-color="white"/>
<stop offset="1" stop-color="#FAFAFA"/>
</radialGradient>
<linearGradient id="paint1_linear_1_3845" x1="277.73" y1="11.9684" x2="264.165" y2="11.9684" gradientUnits="userSpaceOnUse">
<stop stop-color="#7A3DE2"/>
<stop offset="1" stop-color="#43217C"/>
</linearGradient>
<linearGradient id="paint2_linear_1_3845" x1="304.409" y1="38.195" x2="290.844" y2="38.195" gradientUnits="userSpaceOnUse">
<stop stop-color="#7A3DE2"/>
<stop offset="1" stop-color="#43217C"/>
</linearGradient>
<linearGradient id="paint3_linear_1_3845" x1="280.745" y1="62.61" x2="265.672" y2="62.61" gradientUnits="userSpaceOnUse">
<stop stop-color="#7A3DE2"/>
<stop offset="1" stop-color="#43217C"/>
</linearGradient>
<clipPath id="clip0_1_3845">
<rect width="74.6087" height="35.2696" fill="white" transform="translate(40.0173 37.8271)"/>
</clipPath>
</defs>
</svg>
