<svg width="40" height="40" viewBox="0 0 40 40" fill="none" xmlns="http://www.w3.org/2000/svg">
<rect x="0.5" y="0.5" width="39" height="39" rx="7.5" fill="white"/>
<rect x="0.5" y="0.5" width="39" height="39" rx="7.5" stroke="#F9F9F9"/>
<path d="M25.5867 6.66666H14.4133C9.56 6.66666 6.66667 9.55999 6.66667 14.4133V25.5733C6.66667 30.44 9.56 33.3333 14.4133 33.3333H25.5733C30.4267 33.3333 33.32 30.44 33.32 25.5867V14.4133C33.3333 9.55999 30.44 6.66666 25.5867 6.66666ZM20 25.1733C17.1467 25.1733 14.8267 22.8533 14.8267 20C14.8267 17.1467 17.1467 14.8267 20 14.8267C22.8533 14.8267 25.1733 17.1467 25.1733 20C25.1733 22.8533 22.8533 25.1733 20 25.1733ZM27.8933 13.1733C27.8267 13.3333 27.7333 13.48 27.6133 13.6133C27.48 13.7333 27.3333 13.8267 27.1733 13.8933C27.0133 13.96 26.84 14 26.6667 14C26.3067 14 25.9733 13.8667 25.72 13.6133C25.6 13.48 25.5067 13.3333 25.44 13.1733C25.3733 13.0133 25.3333 12.84 25.3333 12.6667C25.3333 12.4933 25.3733 12.32 25.44 12.16C25.5067 11.9867 25.6 11.8533 25.72 11.72C26.0267 11.4133 26.4933 11.2667 26.92 11.36C27.0133 11.3733 27.0933 11.4 27.1733 11.44C27.2533 11.4667 27.3333 11.5067 27.4133 11.56C27.48 11.6 27.5467 11.6667 27.6133 11.72C27.7333 11.8533 27.8267 11.9867 27.8933 12.16C27.96 12.32 28 12.4933 28 12.6667C28 12.84 27.96 13.0133 27.8933 13.1733Z" fill="#7A3DE2"/>
</svg>
