<svg width="40" height="40" viewBox="0 0 40 40" fill="none" xmlns="http://www.w3.org/2000/svg">
<rect x="0.5" y="0.5" width="39" height="39" rx="7.5" fill="white"/>
<rect x="0.5" y="0.5" width="39" height="39" rx="7.5" stroke="#F9F9F9"/>
<path d="M26.6667 6.66667H13.3334C9.65335 6.66667 6.66669 9.64001 6.66669 13.3067V21.28V22.6133C6.66669 26.28 9.65335 29.2533 13.3334 29.2533H15.3334C15.6934 29.2533 16.1734 29.4933 16.4 29.7867L18.4 32.44C19.28 33.6133 20.72 33.6133 21.6 32.44L23.6 29.7867C23.8534 29.4533 24.2534 29.2533 24.6667 29.2533H26.6667C30.3467 29.2533 33.3334 26.28 33.3334 22.6133V13.3067C33.3334 9.64001 30.3467 6.66667 26.6667 6.66667ZM21.3334 22.3333H13.3334C12.7867 22.3333 12.3334 21.88 12.3334 21.3333C12.3334 20.7867 12.7867 20.3333 13.3334 20.3333H21.3334C21.88 20.3333 22.3334 20.7867 22.3334 21.3333C22.3334 21.88 21.88 22.3333 21.3334 22.3333ZM26.6667 15.6667H13.3334C12.7867 15.6667 12.3334 15.2133 12.3334 14.6667C12.3334 14.12 12.7867 13.6667 13.3334 13.6667H26.6667C27.2134 13.6667 27.6667 14.12 27.6667 14.6667C27.6667 15.2133 27.2134 15.6667 26.6667 15.6667Z" fill="url(#paint0_linear_1_4750)"/>
<defs>
<linearGradient id="paint0_linear_1_4750" x1="33.3334" y1="19.9933" x2="6.66669" y2="19.9933" gradientUnits="userSpaceOnUse">
<stop stop-color="#7A3DE2"/>
<stop offset="1" stop-color="#43217C"/>
</linearGradient>
</defs>
</svg>
