<svg width="271" height="218" viewBox="0 0 271 218" fill="none" xmlns="http://www.w3.org/2000/svg">
<g filter="url(#filter0_dddd_1_4759)">
<path fill-rule="evenodd" clip-rule="evenodd" d="M24 5C21.7909 5 20 6.79086 20 9V60C20 62.2091 21.7909 64 24 64H27.6606V77L44.7773 64H174C176.209 64 178 62.2091 178 60V9C178 6.79086 176.209 5 174 5H24Z" fill="#FCFCFC"/>
<path d="M27.6606 64H28.1606V63.5H27.6606V64ZM27.6606 77H27.1606V78.0076L27.963 77.3982L27.6606 77ZM44.7773 64V63.5H44.6089L44.4749 63.6018L44.7773 64ZM20.5 9C20.5 7.067 22.067 5.5 24 5.5V4.5C21.5147 4.5 19.5 6.51472 19.5 9H20.5ZM20.5 60V9H19.5V60H20.5ZM24 63.5C22.067 63.5 20.5 61.933 20.5 60H19.5C19.5 62.4853 21.5147 64.5 24 64.5V63.5ZM27.6606 63.5H24V64.5H27.6606V63.5ZM27.1606 64V77H28.1606V64H27.1606ZM27.963 77.3982L45.0797 64.3982L44.4749 63.6018L27.3582 76.6018L27.963 77.3982ZM174 63.5H44.7773V64.5H174V63.5ZM177.5 60C177.5 61.933 175.933 63.5 174 63.5V64.5C176.485 64.5 178.5 62.4853 178.5 60H177.5ZM177.5 9V60H178.5V9H177.5ZM174 5.5C175.933 5.5 177.5 7.067 177.5 9H178.5C178.5 6.51472 176.485 4.5 174 4.5V5.5ZM24 5.5H174V4.5H24V5.5Z" fill="#ECECEC"/>
<g filter="url(#filter1_i_1_4759)">
<circle cx="67" cy="35" r="8" fill="#515151"/>
</g>
<g filter="url(#filter2_i_1_4759)">
<circle cx="99" cy="35" r="8" fill="#515151"/>
</g>
<g filter="url(#filter3_i_1_4759)">
<circle cx="131" cy="35" r="8" fill="#515151"/>
</g>
</g>
<g filter="url(#filter4_dddd_1_4759)">
<path fill-rule="evenodd" clip-rule="evenodd" d="M103 80C100.791 80 99 81.7909 99 84V135C99 137.209 100.791 139 103 139H228.007L244.582 152V139H248C250.209 139 252 137.209 252 135V84C252 81.7909 250.209 80 248 80H103Z" fill="#ECECEC"/>
<g filter="url(#filter5_i_1_4759)">
<circle cx="143" cy="109" r="8" fill="#8A8A8A"/>
</g>
<g filter="url(#filter6_i_1_4759)">
<circle cx="175" cy="109" r="8" fill="#8A8A8A"/>
</g>
<g filter="url(#filter7_i_1_4759)">
<circle cx="207" cy="109" r="8" fill="#8A8A8A"/>
</g>
</g>
<defs>
<filter id="filter0_dddd_1_4759" x="0.5" y="0.5" width="203.5" height="148.5" filterUnits="userSpaceOnUse" color-interpolation-filters="sRGB">
<feFlood flood-opacity="0" result="BackgroundImageFix"/>
<feColorMatrix in="SourceAlpha" type="matrix" values="0 0 0 0 0 0 0 0 0 0 0 0 0 0 0 0 0 0 127 0" result="hardAlpha"/>
<feOffset dy="3"/>
<feGaussianBlur stdDeviation="3.5"/>
<feColorMatrix type="matrix" values="0 0 0 0 0 0 0 0 0 0 0 0 0 0 0 0 0 0 0.1 0"/>
<feBlend mode="normal" in2="BackgroundImageFix" result="effect1_dropShadow_1_4759"/>
<feColorMatrix in="SourceAlpha" type="matrix" values="0 0 0 0 0 0 0 0 0 0 0 0 0 0 0 0 0 0 127 0" result="hardAlpha"/>
<feOffset dy="12"/>
<feGaussianBlur stdDeviation="6"/>
<feColorMatrix type="matrix" values="0 0 0 0 0 0 0 0 0 0 0 0 0 0 0 0 0 0 0.09 0"/>
<feBlend mode="normal" in2="effect1_dropShadow_1_4759" result="effect2_dropShadow_1_4759"/>
<feColorMatrix in="SourceAlpha" type="matrix" values="0 0 0 0 0 0 0 0 0 0 0 0 0 0 0 0 0 0 127 0" result="hardAlpha"/>
<feOffset dy="27"/>
<feGaussianBlur stdDeviation="8"/>
<feColorMatrix type="matrix" values="0 0 0 0 0 0 0 0 0 0 0 0 0 0 0 0 0 0 0.05 0"/>
<feBlend mode="normal" in2="effect2_dropShadow_1_4759" result="effect3_dropShadow_1_4759"/>
<feColorMatrix in="SourceAlpha" type="matrix" values="0 0 0 0 0 0 0 0 0 0 0 0 0 0 0 0 0 0 127 0" result="hardAlpha"/>
<feOffset dy="47"/>
<feGaussianBlur stdDeviation="9.5"/>
<feColorMatrix type="matrix" values="0 0 0 0 0 0 0 0 0 0 0 0 0 0 0 0 0 0 0.01 0"/>
<feBlend mode="normal" in2="effect3_dropShadow_1_4759" result="effect4_dropShadow_1_4759"/>
<feBlend mode="normal" in="SourceGraphic" in2="effect4_dropShadow_1_4759" result="shape"/>
</filter>
<filter id="filter1_i_1_4759" x="59" y="27" width="16" height="18" filterUnits="userSpaceOnUse" color-interpolation-filters="sRGB">
<feFlood flood-opacity="0" result="BackgroundImageFix"/>
<feBlend mode="normal" in="SourceGraphic" in2="BackgroundImageFix" result="shape"/>
<feColorMatrix in="SourceAlpha" type="matrix" values="0 0 0 0 0 0 0 0 0 0 0 0 0 0 0 0 0 0 127 0" result="hardAlpha"/>
<feOffset dy="2"/>
<feGaussianBlur stdDeviation="2"/>
<feComposite in2="hardAlpha" operator="arithmetic" k2="-1" k3="1"/>
<feColorMatrix type="matrix" values="0 0 0 0 0.133333 0 0 0 0 0.133333 0 0 0 0 0.133333 0 0 0 0.25 0"/>
<feBlend mode="normal" in2="shape" result="effect1_innerShadow_1_4759"/>
</filter>
<filter id="filter2_i_1_4759" x="91" y="27" width="16" height="18" filterUnits="userSpaceOnUse" color-interpolation-filters="sRGB">
<feFlood flood-opacity="0" result="BackgroundImageFix"/>
<feBlend mode="normal" in="SourceGraphic" in2="BackgroundImageFix" result="shape"/>
<feColorMatrix in="SourceAlpha" type="matrix" values="0 0 0 0 0 0 0 0 0 0 0 0 0 0 0 0 0 0 127 0" result="hardAlpha"/>
<feOffset dy="2"/>
<feGaussianBlur stdDeviation="2"/>
<feComposite in2="hardAlpha" operator="arithmetic" k2="-1" k3="1"/>
<feColorMatrix type="matrix" values="0 0 0 0 0.133333 0 0 0 0 0.133333 0 0 0 0 0.133333 0 0 0 0.25 0"/>
<feBlend mode="normal" in2="shape" result="effect1_innerShadow_1_4759"/>
</filter>
<filter id="filter3_i_1_4759" x="123" y="27" width="16" height="18" filterUnits="userSpaceOnUse" color-interpolation-filters="sRGB">
<feFlood flood-opacity="0" result="BackgroundImageFix"/>
<feBlend mode="normal" in="SourceGraphic" in2="BackgroundImageFix" result="shape"/>
<feColorMatrix in="SourceAlpha" type="matrix" values="0 0 0 0 0 0 0 0 0 0 0 0 0 0 0 0 0 0 127 0" result="hardAlpha"/>
<feOffset dy="2"/>
<feGaussianBlur stdDeviation="2"/>
<feComposite in2="hardAlpha" operator="arithmetic" k2="-1" k3="1"/>
<feColorMatrix type="matrix" values="0 0 0 0 0.133333 0 0 0 0 0.133333 0 0 0 0 0.133333 0 0 0 0.25 0"/>
<feBlend mode="normal" in2="shape" result="effect1_innerShadow_1_4759"/>
</filter>
<filter id="filter4_dddd_1_4759" x="68" y="76" width="203" height="148" filterUnits="userSpaceOnUse" color-interpolation-filters="sRGB">
<feFlood flood-opacity="0" result="BackgroundImageFix"/>
<feColorMatrix in="SourceAlpha" type="matrix" values="0 0 0 0 0 0 0 0 0 0 0 0 0 0 0 0 0 0 127 0" result="hardAlpha"/>
<feOffset dy="3"/>
<feGaussianBlur stdDeviation="3.5"/>
<feColorMatrix type="matrix" values="0 0 0 0 0 0 0 0 0 0 0 0 0 0 0 0 0 0 0.1 0"/>
<feBlend mode="normal" in2="BackgroundImageFix" result="effect1_dropShadow_1_4759"/>
<feColorMatrix in="SourceAlpha" type="matrix" values="0 0 0 0 0 0 0 0 0 0 0 0 0 0 0 0 0 0 127 0" result="hardAlpha"/>
<feOffset dy="12"/>
<feGaussianBlur stdDeviation="6"/>
<feColorMatrix type="matrix" values="0 0 0 0 0 0 0 0 0 0 0 0 0 0 0 0 0 0 0.09 0"/>
<feBlend mode="normal" in2="effect1_dropShadow_1_4759" result="effect2_dropShadow_1_4759"/>
<feColorMatrix in="SourceAlpha" type="matrix" values="0 0 0 0 0 0 0 0 0 0 0 0 0 0 0 0 0 0 127 0" result="hardAlpha"/>
<feOffset dy="27"/>
<feGaussianBlur stdDeviation="8"/>
<feColorMatrix type="matrix" values="0 0 0 0 0 0 0 0 0 0 0 0 0 0 0 0 0 0 0.05 0"/>
<feBlend mode="normal" in2="effect2_dropShadow_1_4759" result="effect3_dropShadow_1_4759"/>
<feColorMatrix in="SourceAlpha" type="matrix" values="0 0 0 0 0 0 0 0 0 0 0 0 0 0 0 0 0 0 127 0" result="hardAlpha"/>
<feOffset dy="47"/>
<feGaussianBlur stdDeviation="9.5"/>
<feColorMatrix type="matrix" values="0 0 0 0 0 0 0 0 0 0 0 0 0 0 0 0 0 0 0.01 0"/>
<feBlend mode="normal" in2="effect3_dropShadow_1_4759" result="effect4_dropShadow_1_4759"/>
<feBlend mode="normal" in="SourceGraphic" in2="effect4_dropShadow_1_4759" result="shape"/>
</filter>
<filter id="filter5_i_1_4759" x="135" y="101" width="16" height="18" filterUnits="userSpaceOnUse" color-interpolation-filters="sRGB">
<feFlood flood-opacity="0" result="BackgroundImageFix"/>
<feBlend mode="normal" in="SourceGraphic" in2="BackgroundImageFix" result="shape"/>
<feColorMatrix in="SourceAlpha" type="matrix" values="0 0 0 0 0 0 0 0 0 0 0 0 0 0 0 0 0 0 127 0" result="hardAlpha"/>
<feOffset dy="2"/>
<feGaussianBlur stdDeviation="2"/>
<feComposite in2="hardAlpha" operator="arithmetic" k2="-1" k3="1"/>
<feColorMatrix type="matrix" values="0 0 0 0 0.0541667 0 0 0 0 0.0541667 0 0 0 0 0.0541667 0 0 0 0.25 0"/>
<feBlend mode="normal" in2="shape" result="effect1_innerShadow_1_4759"/>
</filter>
<filter id="filter6_i_1_4759" x="167" y="101" width="16" height="18" filterUnits="userSpaceOnUse" color-interpolation-filters="sRGB">
<feFlood flood-opacity="0" result="BackgroundImageFix"/>
<feBlend mode="normal" in="SourceGraphic" in2="BackgroundImageFix" result="shape"/>
<feColorMatrix in="SourceAlpha" type="matrix" values="0 0 0 0 0 0 0 0 0 0 0 0 0 0 0 0 0 0 127 0" result="hardAlpha"/>
<feOffset dy="2"/>
<feGaussianBlur stdDeviation="2"/>
<feComposite in2="hardAlpha" operator="arithmetic" k2="-1" k3="1"/>
<feColorMatrix type="matrix" values="0 0 0 0 0.0541667 0 0 0 0 0.0541667 0 0 0 0 0.0541667 0 0 0 0.25 0"/>
<feBlend mode="normal" in2="shape" result="effect1_innerShadow_1_4759"/>
</filter>
<filter id="filter7_i_1_4759" x="199" y="101" width="16" height="18" filterUnits="userSpaceOnUse" color-interpolation-filters="sRGB">
<feFlood flood-opacity="0" result="BackgroundImageFix"/>
<feBlend mode="normal" in="SourceGraphic" in2="BackgroundImageFix" result="shape"/>
<feColorMatrix in="SourceAlpha" type="matrix" values="0 0 0 0 0 0 0 0 0 0 0 0 0 0 0 0 0 0 127 0" result="hardAlpha"/>
<feOffset dy="2"/>
<feGaussianBlur stdDeviation="2"/>
<feComposite in2="hardAlpha" operator="arithmetic" k2="-1" k3="1"/>
<feColorMatrix type="matrix" values="0 0 0 0 0.0541667 0 0 0 0 0.0541667 0 0 0 0 0.0541667 0 0 0 0.25 0"/>
<feBlend mode="normal" in2="shape" result="effect1_innerShadow_1_4759"/>
</filter>
</defs>
</svg>
