<svg width="580" height="489" viewBox="0 0 580 489" fill="none" xmlns="http://www.w3.org/2000/svg">
<g filter="url(#filter0_dddd_1_4758)">
<rect x="75" y="65" width="430" height="236" rx="8" fill="white"/>
<rect x="75.5" y="65.5" width="429" height="235" rx="7.5" stroke="#E3E3E3"/>
<rect x="89" y="79" width="402" height="208" rx="8" fill="#F9F9F9"/>
<path d="M119.775 187.892C127.404 170.098 173.566 147.417 208.745 134.624C243.924 121.83 404.303 91.3234 426.734 122.761C449.165 154.199 422.946 170.967 431.24 187.892C439.534 204.817 482.723 200.006 466.312 228.82C449.901 257.634 367.53 282 306.884 282C246.238 282 139.63 274.199 119.775 250.967C99.9191 227.736 112.146 205.686 119.775 187.892Z" fill="#ECECEC"/>
<path opacity="0.2" d="M133 242C133 239.791 134.791 238 137 238H149C151.209 238 153 239.791 153 242V269H133V242Z" fill="#7A3DE2"/>
<path opacity="0.2" d="M175 227C175 224.791 176.791 223 179 223H191C193.209 223 195 224.791 195 227V269H175V227Z" fill="#7A3DE2"/>
<path opacity="0.2" d="M217 217C217 214.791 218.791 213 221 213H233C235.209 213 237 214.791 237 217V269H217V217Z" fill="#7A3DE2"/>
<path opacity="0.2" d="M259 200C259 197.791 260.791 196 263 196H275C277.209 196 279 197.791 279 200V269H259V200Z" fill="#7A3DE2"/>
<path opacity="0.2" d="M301 183C301 180.791 302.791 179 305 179H317C319.209 179 321 180.791 321 183V269H301V183Z" fill="#7A3DE2"/>
<path opacity="0.2" d="M385 148C385 145.791 386.791 144 389 144H401C403.209 144 405 145.791 405 148V269H385V148Z" fill="#7A3DE2"/>
<path opacity="0.2" d="M343 168C343 165.791 344.791 164 347 164H359C361.209 164 363 165.791 363 168V269H343V168Z" fill="#7A3DE2"/>
<path opacity="0.2" d="M427 121C427 118.791 428.791 117 431 117H443C445.209 117 447 118.791 447 121V269H427V121Z" fill="#7A3DE2"/>
<path opacity="0.8" fill-rule="evenodd" clip-rule="evenodd" d="M447.363 117.956L406 128.875L415.279 139.169C396.233 154.46 353.925 183.932 288 205.998C208.183 232.713 151.2 229.417 136.649 228.575C134.245 228.436 133 228.364 133 228.505C133 229.086 133 232.216 133 234.726C133 236.611 134.487 238.3 136.535 238.567C149.645 240.276 199.512 243.569 291 213.498C367.614 188.315 406.084 160.586 421.973 146.595L429.139 154.546L447.363 117.956Z" fill="#7A3DE2"/>
<path d="M72.9136 304.825C74.1801 301.896 77.0657 300 80.2565 300H499.743C502.934 300 505.82 301.896 507.086 304.825L537 374H43L72.9136 304.825Z" fill="#ECECEC"/>
<rect x="43" y="373" width="494" height="12" rx="1" fill="#E3E3E3"/>
<path d="M80.5664 310H499.742L512.219 338H68.1016L80.5664 310Z" fill="#D6D6D6"/>
<path d="M237.562 344.5H342.438C343.084 344.5 343.652 344.912 343.857 345.514L343.894 345.636L348.894 365.636C349.13 366.582 348.414 367.5 347.438 367.5H232.562C231.647 367.5 230.961 366.694 231.073 365.813L231.106 365.636L236.106 345.636C236.274 344.968 236.873 344.5 237.562 344.5Z" fill="#E3E3E3" stroke="#C2C2C2"/>
<g filter="url(#filter1_dddd_1_4758)">
<path d="M381.697 78.4823C407.325 121.199 408.603 151.526 402.98 153.811C396.556 156.422 378.497 148.914 347.151 99.7692C315.286 49.8108 310.846 15.6542 317.894 10.4762C324.908 6.31783 356.07 35.7654 381.697 78.4823Z" fill="#B1B1B1"/>
<path d="M230.969 117.998C259.532 95.4982 283.087 60.4982 283.087 60.4982C283.087 60.4982 291.105 49.4982 298.12 36.9982C305.136 24.4982 311.148 10.9982 311.148 10.9982C311.148 10.9982 309.645 24.4982 313.154 39.9982C316.663 55.4982 319.91 59.9982 320.67 61.9982C321.431 63.9982 331.694 86.4982 341.216 99.9982C350.739 113.498 362.764 131.998 372.286 140.998C381.807 149.998 383.49 151.498 388.501 154.998C393.512 158.498 401.53 160.498 401.53 160.498C401.53 160.498 388.822 160.998 375.793 163.498C362.764 165.998 348.732 170.498 348.732 170.498L315.157 182.998L282.586 195.998L236.481 219.498C236.481 219.498 222.45 227.498 220.446 228.998L220.364 229.06C218.319 230.592 213.79 233.985 203.408 232.998C192.885 231.998 181.859 223.998 175.345 216.998C168.831 209.998 165.824 202.998 164.822 196.998C163.819 190.998 163.318 186.998 165.824 175.998C168.33 164.998 186.872 153.498 188.877 151.498C190.881 149.498 202.407 140.498 230.969 117.998Z" fill="#C2C2C2"/>
<path d="M213.11 231.998C219.624 230.498 235.671 219.498 235.671 219.498C235.671 219.498 219.134 209.998 205.103 190.998C191.072 171.998 189.067 151.998 189.067 151.998C189.067 151.998 171 164.498 167.519 172.498C164.038 180.498 164.055 184.998 164.018 185.998C163.981 186.998 162.957 197.498 170 209.998C177.043 222.498 187.564 228.998 193.621 230.998C199.678 232.998 200.179 233.498 204.09 233.498C208 233.498 206.595 233.498 213.11 231.998Z" fill="#FCFCFC" stroke="#F9F9F9"/>
<path d="M344.501 104.998C313.026 60.9982 310.336 13.9982 310.336 13.9982L297.895 37.4982C297.895 37.4982 283.001 60.9982 282.5 61.4982C282 61.9982 291.386 91.4982 307.414 119.498C323.441 147.498 347.501 170.998 347.501 170.998C347.501 170.998 354.018 167.998 373.561 165.498C393.105 162.998 400.528 159.998 400.528 159.998C400.528 159.998 375.975 148.998 344.501 104.998Z" fill="#D9D9D9"/>
<path d="M327.868 253L294.795 259L248.191 213L276.253 198L289.784 192L327.868 238.5V253Z" fill="#D9D9D9"/>
<path d="M326.745 66.4463L344.881 61.6094C344.881 61.6094 375.85 107.63 375.385 110.148C374.92 112.666 361.764 123.462 361.264 123.457C360.765 123.452 351.799 111.894 342.801 97.8775C333.803 83.8615 326.745 66.4463 326.745 66.4463Z" fill="#E3E3E3"/>
<path d="M345.502 61.8597C346.085 61.5258 347.065 61.6373 348.513 62.4932C349.922 63.326 351.61 64.7706 353.468 66.736C357.178 70.6608 361.487 76.5796 365.507 83.5626C369.526 90.5456 372.477 97.2428 374.005 102.418C374.77 105.009 375.17 107.192 375.181 108.826C375.192 110.506 374.794 111.407 374.211 111.74C373.629 112.074 372.648 111.963 371.2 111.107C369.791 110.274 368.103 108.829 366.245 106.864C362.536 102.939 358.226 97.0204 354.207 90.0374C350.187 83.0544 347.236 76.3573 345.708 71.1823C344.943 68.5909 344.543 66.4081 344.533 64.7742C344.522 63.0946 344.919 62.1936 345.502 61.8597Z" fill="#FCFCFC" stroke="#CECECE"/>
<mask id="path-25-inside-1_1_4758" fill="white">
<path fill-rule="evenodd" clip-rule="evenodd" d="M406.473 159.091C418.997 151.611 408.637 111.358 383.335 69.1826C358.033 27.0074 327.369 -1.11877 314.846 6.36106C302.322 13.8409 312.681 54.0942 337.983 96.2694C363.285 138.445 393.949 166.571 406.473 159.091ZM401.749 153.073C407.048 150.968 405.173 121.392 379.871 79.2172C354.568 37.042 324.882 7.33694 318.302 11.2368C311.712 16.1294 318.701 51.2445 347.477 99.2101C372.779 141.385 395.697 155.478 401.749 153.073Z"/>
</mask>
<path fill-rule="evenodd" clip-rule="evenodd" d="M406.473 159.091C418.997 151.611 408.637 111.358 383.335 69.1826C358.033 27.0074 327.369 -1.11877 314.846 6.36106C302.322 13.8409 312.681 54.0942 337.983 96.2694C363.285 138.445 393.949 166.571 406.473 159.091ZM401.749 153.073C407.048 150.968 405.173 121.392 379.871 79.2172C354.568 37.042 324.882 7.33694 318.302 11.2368C311.712 16.1294 318.701 51.2445 347.477 99.2101C372.779 141.385 395.697 155.478 401.749 153.073Z" fill="white"/>
<path d="M383.335 69.1826L382.478 69.6971L383.335 69.1826ZM406.473 159.091L405.96 158.232L406.473 159.091ZM314.846 6.36106L314.333 5.50254L314.333 5.50254L314.846 6.36106ZM337.983 96.2694L337.126 96.7839L337.983 96.2694ZM379.871 79.2172L380.728 78.7027L379.871 79.2172ZM401.749 153.073L401.38 152.144L401.749 153.073ZM318.302 11.2368L317.793 10.3766L317.748 10.403L317.706 10.4339L318.302 11.2368ZM347.477 99.2101L348.334 98.6956L347.477 99.2101ZM382.478 69.6971C395.094 90.726 403.963 111.244 408.12 127.397C410.201 135.48 411.086 142.413 410.702 147.746C410.316 153.113 408.67 156.614 405.96 158.232L406.986 159.949C410.538 157.828 412.294 153.492 412.697 147.89C413.102 142.254 412.164 135.085 410.057 126.898C405.84 110.511 396.879 89.8143 384.193 68.6681L382.478 69.6971ZM315.358 7.21957C318.069 5.60066 321.94 5.8074 326.865 8.00376C331.758 10.1861 337.465 14.2401 343.622 19.8881C355.928 31.1751 369.862 48.6682 382.478 69.6971L384.193 68.6681C371.506 47.5218 357.457 29.8641 344.974 18.4142C338.738 12.6938 332.849 8.48276 327.68 6.1772C322.542 3.88563 317.884 3.38154 314.333 5.50254L315.358 7.21957ZM338.841 95.7549C326.225 74.726 317.355 54.2085 313.198 38.0552C311.118 29.972 310.233 23.0388 310.617 17.7056C311.003 12.3385 312.649 8.83794 315.358 7.21957L314.333 5.50254C310.781 7.62409 309.025 11.9601 308.622 17.5622C308.216 23.1982 309.154 30.3668 311.261 38.5538C315.478 54.9409 324.439 75.6377 337.126 96.7839L338.841 95.7549ZM405.96 158.232C403.25 159.851 399.378 159.645 394.454 157.448C389.56 155.266 383.854 151.212 377.696 145.564C365.391 134.277 351.457 116.784 338.841 95.7549L337.126 96.7839C349.812 117.93 363.861 135.588 376.344 147.038C382.581 152.758 388.469 156.969 393.639 159.275C398.777 161.566 403.434 162.07 406.986 159.949L405.96 158.232ZM379.013 79.7317C391.619 100.745 398.369 118.585 401.311 131.395C402.783 137.807 403.294 142.923 403.125 146.529C403.041 148.337 402.788 149.717 402.431 150.677C402.064 151.664 401.654 152.035 401.38 152.144L402.118 154.003C403.169 153.585 403.86 152.572 404.306 151.374C404.761 150.148 405.034 148.543 405.123 146.623C405.303 142.774 404.757 137.465 403.26 130.948C400.263 117.9 393.424 99.865 380.728 78.7027L379.013 79.7317ZM318.812 12.0971C319.246 11.8397 320.065 11.7611 321.469 12.2523C322.835 12.7301 324.547 13.6768 326.564 15.0997C330.588 17.9394 335.654 22.5501 341.335 28.6315C352.688 40.7852 366.394 58.6976 379.013 79.7317L380.728 78.7027C368.045 57.5617 354.256 39.5339 342.796 27.2662C337.071 21.137 331.9 16.4167 327.717 13.4655C325.63 11.993 323.745 10.9294 322.13 10.3644C320.552 9.81277 319.003 9.65897 317.793 10.3766L318.812 12.0971ZM348.334 98.6956C333.98 74.769 325.078 54.0769 320.587 38.7891C318.339 31.1399 317.207 24.8803 317.033 20.2639C316.946 17.9538 317.101 16.0963 317.453 14.6985C317.809 13.2862 318.336 12.4571 318.898 12.0398L317.706 10.4339C316.621 11.2397 315.925 12.5781 315.514 14.2101C315.099 15.8565 314.944 17.9198 315.035 20.3392C315.217 25.1819 316.395 31.6162 318.668 39.353C323.217 54.8373 332.198 75.6856 346.619 99.7246L348.334 98.6956ZM401.38 152.144C400.868 152.347 400.061 152.415 398.903 152.196C397.76 151.98 396.355 151.498 394.709 150.702C391.42 149.111 387.273 146.317 382.493 142.108C372.938 133.697 360.945 119.716 348.334 98.6956L346.619 99.7246C359.311 120.879 371.428 135.032 381.171 143.61C386.04 147.896 390.338 150.809 393.839 152.503C395.588 153.349 397.165 153.903 398.531 154.161C399.885 154.418 401.117 154.4 402.118 154.003L401.38 152.144Z" fill="#CECECE" mask="url(#path-25-inside-1_1_4758)"/>
<path d="M277 198L328.5 253V238.5L290.5 192L277 198Z" fill="#B1B1B1"/>
</g>
</g>
<defs>
<filter id="filter0_dddd_1_4758" x="0" y="0" width="580" height="502" filterUnits="userSpaceOnUse" color-interpolation-filters="sRGB">
<feFlood flood-opacity="0" result="BackgroundImageFix"/>
<feColorMatrix in="SourceAlpha" type="matrix" values="0 0 0 0 0 0 0 0 0 0 0 0 0 0 0 0 0 0 127 0" result="hardAlpha"/>
<feOffset dy="4"/>
<feGaussianBlur stdDeviation="4.5"/>
<feColorMatrix type="matrix" values="0 0 0 0 0 0 0 0 0 0 0 0 0 0 0 0 0 0 0.1 0"/>
<feBlend mode="normal" in2="BackgroundImageFix" result="effect1_dropShadow_1_4758"/>
<feColorMatrix in="SourceAlpha" type="matrix" values="0 0 0 0 0 0 0 0 0 0 0 0 0 0 0 0 0 0 127 0" result="hardAlpha"/>
<feOffset dy="17"/>
<feGaussianBlur stdDeviation="8.5"/>
<feColorMatrix type="matrix" values="0 0 0 0 0 0 0 0 0 0 0 0 0 0 0 0 0 0 0.09 0"/>
<feBlend mode="normal" in2="effect1_dropShadow_1_4758" result="effect2_dropShadow_1_4758"/>
<feColorMatrix in="SourceAlpha" type="matrix" values="0 0 0 0 0 0 0 0 0 0 0 0 0 0 0 0 0 0 127 0" result="hardAlpha"/>
<feOffset dy="38"/>
<feGaussianBlur stdDeviation="11.5"/>
<feColorMatrix type="matrix" values="0 0 0 0 0 0 0 0 0 0 0 0 0 0 0 0 0 0 0.05 0"/>
<feBlend mode="normal" in2="effect2_dropShadow_1_4758" result="effect3_dropShadow_1_4758"/>
<feColorMatrix in="SourceAlpha" type="matrix" values="0 0 0 0 0 0 0 0 0 0 0 0 0 0 0 0 0 0 127 0" result="hardAlpha"/>
<feOffset dy="67"/>
<feGaussianBlur stdDeviation="13.5"/>
<feColorMatrix type="matrix" values="0 0 0 0 0 0 0 0 0 0 0 0 0 0 0 0 0 0 0.01 0"/>
<feBlend mode="normal" in2="effect3_dropShadow_1_4758" result="effect4_dropShadow_1_4758"/>
<feBlend mode="normal" in="SourceGraphic" in2="effect4_dropShadow_1_4758" result="shape"/>
</filter>
<filter id="filter1_dddd_1_4758" x="141.446" y="0" width="294.554" height="337" filterUnits="userSpaceOnUse" color-interpolation-filters="sRGB">
<feFlood flood-opacity="0" result="BackgroundImageFix"/>
<feColorMatrix in="SourceAlpha" type="matrix" values="0 0 0 0 0 0 0 0 0 0 0 0 0 0 0 0 0 0 127 0" result="hardAlpha"/>
<feOffset dy="3"/>
<feGaussianBlur stdDeviation="4"/>
<feColorMatrix type="matrix" values="0 0 0 0 0 0 0 0 0 0 0 0 0 0 0 0 0 0 0.1 0"/>
<feBlend mode="normal" in2="BackgroundImageFix" result="effect1_dropShadow_1_4758"/>
<feColorMatrix in="SourceAlpha" type="matrix" values="0 0 0 0 0 0 0 0 0 0 0 0 0 0 0 0 0 0 127 0" result="hardAlpha"/>
<feOffset dy="14"/>
<feGaussianBlur stdDeviation="7"/>
<feColorMatrix type="matrix" values="0 0 0 0 0 0 0 0 0 0 0 0 0 0 0 0 0 0 0.09 0"/>
<feBlend mode="normal" in2="effect1_dropShadow_1_4758" result="effect2_dropShadow_1_4758"/>
<feColorMatrix in="SourceAlpha" type="matrix" values="0 0 0 0 0 0 0 0 0 0 0 0 0 0 0 0 0 0 127 0" result="hardAlpha"/>
<feOffset dy="31"/>
<feGaussianBlur stdDeviation="9.5"/>
<feColorMatrix type="matrix" values="0 0 0 0 0 0 0 0 0 0 0 0 0 0 0 0 0 0 0.05 0"/>
<feBlend mode="normal" in2="effect2_dropShadow_1_4758" result="effect3_dropShadow_1_4758"/>
<feColorMatrix in="SourceAlpha" type="matrix" values="0 0 0 0 0 0 0 0 0 0 0 0 0 0 0 0 0 0 127 0" result="hardAlpha"/>
<feOffset dy="55"/>
<feGaussianBlur stdDeviation="11"/>
<feColorMatrix type="matrix" values="0 0 0 0 0 0 0 0 0 0 0 0 0 0 0 0 0 0 0.01 0"/>
<feBlend mode="normal" in2="effect3_dropShadow_1_4758" result="effect4_dropShadow_1_4758"/>
<feBlend mode="normal" in="SourceGraphic" in2="effect4_dropShadow_1_4758" result="shape"/>
</filter>
</defs>
</svg>
