<svg width="40" height="40" viewBox="0 0 40 40" fill="none" xmlns="http://www.w3.org/2000/svg">
<rect x="0.5" y="0.5" width="39" height="39" rx="7.5" fill="white"/>
<rect x="0.5" y="0.5" width="39" height="39" rx="7.5" stroke="#F9F9F9"/>
<path d="M28 6.66667H12C9.78667 6.66667 8 8.44 8 10.6267V25.1733C8 27.36 9.78667 29.1333 12 29.1333H13.0133C14.08 29.1333 15.0933 29.5467 15.84 30.2933L18.12 32.5467C19.16 33.5733 20.8533 33.5733 21.8933 32.5467L24.1733 30.2933C24.92 29.5467 25.9467 29.1333 27 29.1333H28C30.2133 29.1333 32 27.36 32 25.1733V10.6267C32 8.44 30.2133 6.66667 28 6.66667ZM26.24 18L24.68 22.7467C24.48 23.5333 23.64 24.1733 22.7867 24.1733H20.32C19.8933 24.1733 19.2933 24.0267 19.0267 23.76L17.0667 22.2267C17.0267 23.08 16.64 23.44 15.6933 23.44H15.0533C14.0667 23.44 13.6667 23.0533 13.6667 22.12V15.76C13.6667 14.8267 14.0667 14.44 15.0533 14.44H15.7067C16.6933 14.44 17.0933 14.8267 17.0933 15.76V16.24L19.68 12.4C19.9467 11.9867 20.6267 11.6933 21.2 11.92C21.8267 12.1333 22.2267 12.8267 22.0933 13.44L21.7733 15.52C21.7333 15.6933 21.7733 15.88 21.8933 16C22 16.12 22.16 16.2 22.3333 16.2H24.9333C25.44 16.2 25.8667 16.4 26.12 16.76C26.36 17.1067 26.4 17.5467 26.24 18Z" fill="url(#paint0_linear_1_4746)"/>
<defs>
<linearGradient id="paint0_linear_1_4746" x1="32" y1="19.9917" x2="8" y2="19.9917" gradientUnits="userSpaceOnUse">
<stop stop-color="#7A3DE2"/>
<stop offset="1" stop-color="#43217C"/>
</linearGradient>
</defs>
</svg>
