<svg width="40" height="40" viewBox="0 0 40 40" fill="none" xmlns="http://www.w3.org/2000/svg">
<rect x="0.5" y="0.5" width="39" height="39" rx="7.5" fill="white"/>
<rect x="0.5" y="0.5" width="39" height="39" rx="7.5" stroke="#F9F9F9"/>
<path d="M26.6667 9.33334H13.3333C9.33333 9.33334 6.66666 12 6.66666 16V24C6.66666 28 9.33333 30.6667 13.3333 30.6667H26.6667C30.6667 30.6667 33.3333 28 33.3333 24V16C33.3333 12 30.6667 9.33334 26.6667 9.33334ZM22.52 21.3733L19.2266 23.3467C17.8933 24.1467 16.8 23.5334 16.8 21.9734V18.0134C16.8 16.4534 17.8933 15.84 19.2266 16.64L22.52 18.6133C23.7867 19.3867 23.7867 20.6133 22.52 21.3733Z" fill="#7A3DE2"/>
</svg>
